# xmcd
#
# Track frame offsets:
#	150
#	19095
#	38962
#	54262
#	68180
#	72245
#	86945
#	108600
#	130387
#	155252
#	167992
#	174060
#
# Disc length: 2634 seconds
#
# Revision: 1
# Processed by: cddbd v1.5PL3 Copyright (c) Steve Scherf et al.
# Submitted via: CDex 1.50Beta5
#
DISCID=a00a480c
DTITLE=嘉門達夫 - 日常〜COM’ON 超B級娯楽音楽〜
DYEAR=1991
DGENRE=Pop
TTITLE0=ほっといてくれよ!
TTITLE1=法事ブギ
TTITLE2=生物・漢字フラメンコ
TTITLE3=歯
TTITLE4=人が仕事してるのに
TTITLE5=街角
TTITLE6=電光石火のスケベー
TTITLE7=三色パックの謎
TTITLE8=キャッシュ・カード
TTITLE9=ユカイなモッコリ
TTITLE10=シンキウソウホ
TTITLE11=日常
EXTD=
EXTT0=
EXTT1=
EXTT2=
EXTT3=
EXTT4=
EXTT5=
EXTT6=
EXTT7=
EXTT8=
EXTT9=
EXTT10=
EXTT11=
PLAYORDER=
